<?xml version="1.0" encoding="utf-8"?>
<!-- Generator: Adobe Illustrator 16.0.0, SVG Export Plug-In . SVG Version: 6.00 Build 0)  -->
<!DOCTYPE svg PUBLIC "-//W3C//DTD SVG 1.1//EN" "http://www.w3.org/Graphics/SVG/1.1/DTD/svg11.dtd">
<svg version="1.1" id="Layer_1" xmlns="http://www.w3.org/2000/svg" xmlns:xlink="http://www.w3.org/1999/xlink" x="0px" y="0px"
	 width="612px" height="510.08px" viewBox="0 140.947 612 510.08" enable-background="new 0 140.947 612 510.08"
	 xml:space="preserve">
<rect x="8.13" y="526.5" width="592.434" height="90"/>
<path fill="#FFFFFF" d="M274.96,608.76v-75.04h10.283v75.04H274.96z"/>
<path fill="#661016" d="M57.328,283.53v4.065H18.97v60.228h32.126v4.228H18.97v77.843l-10.84,0.366V283.53H57.328z"/>
<path fill="#661016" d="M110.715,341.496c6.323,10.406,9.484,23.012,9.484,37.817c0,14.453-3.161,26.815-9.484,37.085
	c-6.323,10.271-13.699,15.434-22.127,15.488c-8.816,0-16.346-5.141-22.588-15.42c-6.241-10.279-9.362-22.624-9.362-37.031
	c0-14.806,3.121-27.411,9.362-37.817c6.242-10.406,13.771-15.609,22.588-15.609C97.034,325.964,104.409,331.126,110.715,341.496z
	 M70.458,343.38c-4.688,9.584-7.032,21.214-7.032,34.89s2.345,25.356,7.032,35.04c4.652,9.792,10.714,14.688,18.184,14.688
	c7.471,0,13.315-4.969,17.534-14.905c4.345-9.937,6.517-21.779,6.517-35.527c0-13.459-2.172-24.904-6.517-34.335
	c-4.346-9.431-10.208-14.155-17.588-14.173C81.117,329.058,75.074,333.832,70.458,343.38z"/>
<path fill="#661016" d="M139.725,384.855c-0.646,0.001-1.291-0.063-1.924-0.19h-2.209v45.541h-7.533v-102.26
	c14.805-0.614,25.423,1.924,31.854,7.615s9.644,12.149,9.634,19.376v1.653c-0.795,11.862-8.491,22.148-19.646,26.259
	c7.588,2.331,12.696,5.492,15.324,9.485c2.629,3.993,3.641,10.267,3.035,18.82c-0.008,3.243,0.36,6.476,1.098,9.634
	c0.653,2.916,1.702,5.729,3.116,8.36h-8.265c-1.041-1.739-1.813-3.626-2.29-5.596c-0.564-2.251-0.842-4.563-0.826-6.884
	c0.37-10.279-0.886-17.867-3.768-22.763c-2.881-4.896-8.116-7.958-15.704-9.187C140.995,384.827,140.36,384.873,139.725,384.855z
	 M135.659,381.373c8.32,0,14.684-2.633,19.092-7.899c4.193-4.836,6.499-11.024,6.49-17.425c-0.018-6.166-2.232-12.123-6.246-16.802
	c-4.164-5.077-10.65-7.737-19.458-7.981L135.659,381.373z"/>
<path fill="#661016" d="M218.151,328.326v2.94h-26.571v41.489h22.222v3.306h-22.222v50.798h26.571v3.307h-34.146V328.271
	L218.151,328.326z"/>
<path fill="#661016" d="M273.284,327.946h3.306L255.656,430.22h-7.9l-20.73-102.273h8.631l17.994,92.138L273.284,327.946z"/>
<path fill="#661016" d="M317.171,328.326v2.94h-26.625v41.489h22.222v3.306h-22.222v50.798h26.625v3.307h-34.145V328.271
	L317.171,328.326z"/>
<path fill="#661016" d="M337.645,384.855c-0.646,0.001-1.29-0.063-1.924-0.19h-2.209v45.541h-7.533v-102.26
	c14.806-0.614,25.424,1.924,31.855,7.615s9.647,12.149,9.647,19.376v1.653c-0.796,11.862-8.491,22.148-19.647,26.259
	c7.588,2.331,12.696,5.492,15.325,9.485s3.641,10.267,3.035,18.82c-0.008,3.243,0.36,6.476,1.098,9.634
	c0.652,2.916,1.701,5.729,3.116,8.36h-8.266c-1.041-1.739-1.813-3.626-2.29-5.596c-0.564-2.251-0.842-4.563-0.826-6.884
	c0.37-10.279-0.886-17.867-3.767-22.763c-2.882-4.896-8.116-7.958-15.704-9.187C338.925,384.828,338.284,384.873,337.645,384.855z
	 M333.58,381.373c8.319,0,14.684-2.633,19.092-7.899c4.24-4.822,6.59-11.017,6.612-17.438c-0.019-6.165-2.232-12.122-6.247-16.802
	c-4.164-5.077-10.649-7.737-19.457-7.981V381.373z"/>
<path fill="#661016" d="M30.799,475.978c0,4.064-2.71,11.002-12.385,11.002H10.84v20.637H8.13v-42.642h10.353
	C28.184,464.975,30.799,471.858,30.799,475.978z M28.089,475.978c-0.024-1.922-0.676-3.782-1.856-5.298
	c-2.002-2.084-4.828-3.167-7.71-2.954H10.84v16.503h7.574c2.882,0.213,5.708-0.87,7.71-2.953c1.221-1.499,1.899-3.365,1.924-5.298
	H28.089z"/>
<path fill="#661016" d="M74.361,507.616h-3.306c-1.818-3.121-2.725-6.688-2.615-10.298c0-9.838-8.604-10.312-10.312-10.312h-6.192
	v20.609h-2.71v-42.642h10.393c9.702,0,12.317,6.884,12.317,11.003c-0.004,4.414-2.684,8.385-6.775,10.04
	c0.411,0.189,0.802,0.421,1.165,0.691c1.471,1.063,2.673,2.454,3.51,4.064c0.937,2.048,1.399,4.28,1.355,6.531
	C71.115,500.992,72.226,504.607,74.361,507.616z M51.936,484.229h7.561c2.882,0.213,5.708-0.87,7.71-2.953
	c1.211-1.502,1.88-3.369,1.897-5.298c-0.024-1.922-0.677-3.782-1.856-5.298c-1.983-2.062-4.774-3.143-7.629-2.954h-7.683V484.229z"
	/>
<path fill="#661016" d="M134.061,486.302c0,15.203-9.011,21.327-19.254,21.327c-10.244,0-19.254-7.289-19.254-21.327
	c0-14.037,9.01-21.327,19.254-21.327C125.05,464.975,134.061,471.1,134.061,486.302z M131.351,486.302
	c0-16.923-11.49-18.576-16.504-18.576c-8.319,0-16.503,5.637-16.503,18.576c0,12.94,8.13,18.577,16.503,18.577
	c4.974-0.014,16.463-1.653,16.463-18.577H131.351z"/>
<path fill="#661016" d="M158.125,507.616v-42.642h24.552v2.263h-21.68v16.788h20.434v2.276h-20.487v21.314H158.125z"/>
<path fill="#661016" d="M232.96,505.353v2.264h-25.866v-42.642H231.7v2.263h-21.68v16.788h20.324v2.276h-20.419v19.051H232.96z"/>
<path fill="#661016" d="M256.55,503.293c-2.148-2.348-3.33-5.421-3.306-8.604h2.615c-0.074,2.55,0.866,5.025,2.614,6.883
	c2.195,2.276,5.637,3.442,10.244,3.442c5.42,0,9.281-1.03,11.422-3.104c1.53-1.578,2.327-3.727,2.195-5.921
	c0-2.548-1.354-4.539-4.064-6.26c-3.109-1.629-6.385-2.919-9.77-3.849c-3.216-0.847-6.329-2.047-9.281-3.577
	c-3.171-1.856-4.675-4.064-4.675-7.019c-0.051-2.612,1.025-5.12,2.953-6.883c2.48-2.276,6.261-3.442,11.206-3.442
	c2.347-0.04,4.681,0.354,6.883,1.166c1.729,0.64,3.268,1.707,4.472,3.103c1.917,2.237,2.944,5.103,2.887,8.049h-2.615
	c0-2.345-0.827-9.702-11.626-9.702c-10.46,0-11.626,5.42-11.626,7.71c0,4.336,5.922,6.192,12.195,8.13
	c3.604,0.965,7.09,2.329,10.393,4.064c1.482,0.852,2.751,2.028,3.713,3.442c1.024,1.473,1.556,3.232,1.518,5.026
	c0.163,2.895-0.911,5.722-2.954,7.777c-1.429,1.325-3.151,2.291-5.027,2.818c-2.646,0.737-5.384,1.084-8.13,1.03
	C263.365,507.616,259.233,506.18,256.55,503.293z"/>
<path fill="#661016" d="M311.643,503.293c-2.148-2.348-3.33-5.421-3.306-8.604h2.615c-0.074,2.55,0.866,5.025,2.615,6.883
	c2.194,2.276,5.637,3.442,10.243,3.442c5.42,0,9.281-1.03,11.423-3.104c1.522-1.592,2.305-3.751,2.154-5.948
	c0-2.547-1.355-4.539-4.065-6.26c-3.109-1.629-6.385-2.919-9.77-3.849c-3.216-0.847-6.328-2.046-9.281-3.577
	c-3.171-1.855-4.675-4.064-4.675-7.019c-0.05-2.612,1.026-5.119,2.954-6.883c2.479-2.276,6.26-3.441,11.219-3.441
	c2.347-0.041,4.681,0.354,6.884,1.165c1.729,0.637,3.269,1.705,4.472,3.103c1.917,2.238,2.944,5.103,2.886,8.049h-2.615
	c0-2.344-0.826-9.702-11.626-9.702c-10.46,0-11.625,5.42-11.625,7.71c0,4.336,5.921,6.192,12.194,8.13
	c3.604,0.966,7.09,2.329,10.393,4.065c1.482,0.851,2.752,2.027,3.713,3.441c1.024,1.473,1.556,3.232,1.518,5.026
	c0.163,2.895-0.91,5.722-2.954,7.778c-1.428,1.325-3.151,2.291-5.026,2.818c-2.646,0.736-5.385,1.083-8.13,1.029
	C318.418,507.616,314.353,506.18,311.643,503.293z"/>
<path fill="#661016" d="M364.054,507.616v-42.642h2.71v42.642H364.054z"/>
<path fill="#661016" d="M429.404,486.302c0,15.203-9.011,21.327-19.254,21.327s-19.254-7.289-19.254-21.327
	c0-14.037,9.011-21.327,19.254-21.327S429.404,471.1,429.404,486.302z M426.694,486.302c0-16.923-11.49-18.576-16.503-18.576
	c-8.32,0-16.504,5.637-16.504,18.576c0,12.94,8.13,18.577,16.504,18.577c4.973-0.014,16.463-1.653,16.463-18.577H426.694z"/>
<path fill="#661016" d="M485.798,507.616h-2.887l-26.828-38.522v38.522h-2.615v-42.642h2.886l26.829,38.522v-38.522h2.615V507.616z"
	/>
<path fill="#661016" d="M539.59,492.9h-20.771l-6.125,14.715h-2.818l17.547-42.641h2.71l18.848,42.641h-2.886L539.59,492.9z
	 M538.628,490.773l-9.837-22.357l-9.078,22.357H538.628z"/>
<path fill="#661016" d="M573.085,507.616v-42.642h2.71v39.891h24.769v2.71L573.085,507.616z"/>
<path fill="#661016" d="M467.546,282.636c-7.127,6.463-9.241,19.254-11.571,28.048c-2.493,9.404-5.027,18.78-7.046,28.292
	c-4.403,20.745-9.269,41.882-18.062,61.258c-3.659,8.063-8.36,17.926-16.124,22.831c-11.111,7.019-15.162-7.222-14.62-15.759
	c0.271-4.309,1.07-9.159,3.319-12.926c1.748-2.927,6.098-8.198,9.783-8.13c2.98,0,5.528,3.686,7.113,5.84
	c3.306,4.499,5.609,9.634,8.916,14.132c4.188,5.848,9.432,10.86,15.46,14.783c9.092,5.691,20.324,6.775,29.81,1.355
	c11.788-6.896,16.774-20.867,19.213-33.563c0.637-3.347-7.316-2.154-7.886,0.84c-2.209,11.531-8.292,32.194-23.495,31.476
	s-25.013-16.883-32.167-28.359c-5.487-8.808-13.035-14.905-23.359-9.133c-10.556,5.895-15.027,17.046-14.566,28.671
	c0.353,8.998,4.525,17.846,14.701,17.737c8.415-0.095,15.528-5.081,20.704-11.341c14.322-17.344,20.229-42.126,25.406-63.495
	c2.425-10.04,4.322-20.189,6.978-30.162c1.951-7.357,3.699-14.783,5.826-22.1c1.722-5.935,3.374-14.2,8.13-18.549
	c3.456-3.144-4.24-3.645-6.408-1.68L467.546,282.636z"/>
<path fill="#661016" d="M490.052,418.594c21.802-5.014,37.573-27.397,33.4-49.754l-7.858,2.101
	c6.191,12.886,18.86,21.679,25.595,34.443c2.832,5.325,5.501,13.184,0.407,18.171c-5.096,4.986-18.347,2.222-22.222-3.226
	c-1.355-1.965-8.523,1.152-7.859,2.101c7.927,11.165,37.153,9.268,40.474-5.42c1.938-8.591-4.783-17.357-9.647-23.712
	c-6.139-7.994-14.512-15.271-18.97-24.39c-0.854-1.761-8.211,0.19-7.859,2.1c3.441,17.845-7.397,40.717-26.137,45.012
	c-4.621,1.057-3.957,3.618,0.677,2.547V418.594z"/>
<path fill="#661016" d="M545.281,428.119c22.655-5.257,42.005-33.427,37.791-56.57l-7.859,2.101
	c6.314,13.129,19.281,22.032,25.948,35.081c2.886,5.637,5.42,15.094-2.073,18.535c-5.813,2.71-16.599,0.637-20.325-4.661
	c-1.354-1.964-9.01,0.597-7.316,2.968c8.13,11.518,37.682,9.051,40.364-6.314c1.491-8.509-5-17.1-9.837-23.427
	c-6.084-7.954-14.498-15.189-18.875-24.294c-1.124-2.331-8.333-0.529-7.858,2.1c3.482,18.97-11.449,46.394-30.894,50.906
	c-4.729,1.098-3.767,4.647,0.948,3.551L545.281,428.119z"/>
<path fill="#661016" d="M492.031,375.614c-0.66-0.806-1.58-1.356-2.602-1.558c-1.385-0.115-2.778,0.098-4.064,0.624
	c-0.746,0.284-2.29,0.976-2.507,1.951c-0.069,0.596,0.055,1.199,0.352,1.721c0.366,0.84,0.772,1.653,1.18,2.466
	c0.69,1.355,3.197,0.881,4.349,0.542c0.977-0.211,1.899-0.622,2.71-1.206c0.339-0.285,1.111-0.908,0.854-1.437
	c-0.366-0.745-0.746-1.477-1.084-2.236c-0.25-0.444-0.415-0.932-0.488-1.436v0.46c0.055-0.434-0.194-0.163-0.745,0.813l-2.71,1.206
	l0,0l-2.046,0.312l0,0l-1.559-0.189c0.325,0.081-0.217,0-0.203-0.136c0,0,0.244,0.176,0.271,0.204
	c0.298,0.247,0.583,0.509,0.854,0.786c0.613,0.385,1.339,0.552,2.06,0.474c1.051-0.033,2.088-0.253,3.062-0.65
	c0.746-0.312,3.374-1.558,2.223-2.71H492.031z"/>
<line fill="#661016" x1="0" y1="447.522" x2="609.533" y2="447.522"/>
<path fill="#661016" d="M496.624,140.96c-59.361,52.397-87.911,125.863-106.04,201.064c-18.347,76.096-32.52,156.743-79.781,221.416
	c-25.677,35.148-60.702,61.57-99.468,80.811c-0.936,0.461,0.854,6.354,0,6.775c34.578-17.168,66.516-40.013,91.107-70.012
	c23.645-28.848,40.094-62.857,52.573-97.815c27.451-76.84,33.874-160.185,68.304-234.654
	c17.615-38.034,41.788-73.006,73.305-100.824c1.151-1.016-1.098-5.813,0-6.775V140.96z"/>
<path fill="#FFFFFF" d="M16.967,608.76v-75.04h16.305c5.559,0,9.959,0.851,13.202,2.548c3.242,1.699,5.559,4.247,6.948,7.644
	s2.084,7.628,2.084,12.691v27.607c0,5.313-0.695,9.789-2.084,13.433c-1.39,3.646-3.645,6.408-6.763,8.292
	c-3.119,1.885-7.304,2.825-12.553,2.825H16.967z M27.435,601.256h5.929c3.829,0,6.546-0.741,8.152-2.224
	c1.605-1.482,2.578-3.644,2.918-6.484c0.339-2.841,0.509-6.269,0.509-10.283v-24.365c0-3.891-0.248-7.041-0.741-9.449
	c-0.495-2.409-1.575-4.169-3.243-5.28c-1.667-1.112-4.293-1.668-7.875-1.668h-5.651V601.256z"/>
<path fill="#FFFFFF" d="M79.867,608.76v-75.04h10.283v75.04H79.867z"/>
<path fill="#FFFFFF" d="M134.755,609.594c-4.324,0-7.921-0.927-10.792-2.779c-2.872-1.853-5.049-4.415-6.531-7.689
	c-1.482-3.272-2.348-7.071-2.594-11.395l9.264-2.502c0.186,2.656,0.603,5.22,1.251,7.689c0.648,2.471,1.714,4.493,3.196,6.068
	c1.482,1.574,3.551,2.362,6.207,2.362c2.717,0,4.771-0.756,6.161-2.27c1.39-1.513,2.084-3.69,2.084-6.531
	c0-3.396-0.773-6.129-2.316-8.199c-1.544-2.068-3.49-4.153-5.836-6.253l-12.599-11.117c-2.471-2.161-4.293-4.523-5.466-7.087
	c-1.174-2.563-1.76-5.729-1.76-9.496c0-5.496,1.575-9.758,4.725-12.784c3.15-3.025,7.442-4.54,12.877-4.54
	c2.964,0,5.573,0.387,7.828,1.158c2.253,0.773,4.137,1.962,5.651,3.567c1.513,1.606,2.717,3.629,3.613,6.067
	c0.895,2.44,1.497,5.297,1.806,8.569l-8.894,2.409c-0.185-2.47-0.556-4.739-1.111-6.81c-0.556-2.068-1.529-3.736-2.918-5.003
	c-1.39-1.265-3.381-1.898-5.975-1.898c-2.594,0-4.618,0.694-6.068,2.084c-1.452,1.39-2.177,3.443-2.177,6.161
	c0,2.285,0.385,4.169,1.158,5.65c0.771,1.482,2.022,2.997,3.752,4.54l12.692,11.117c2.84,2.471,5.341,5.419,7.504,8.847
	c2.161,3.428,3.243,7.489,3.243,12.183c0,3.705-0.773,6.901-2.316,9.588c-1.544,2.687-3.66,4.741-6.346,6.161
	S138.275,609.594,134.755,609.594z"/>
<path fill="#FFFFFF" d="M177.507,608.76v-67.258h-12.692v-7.782h35.481v7.782h-12.321v67.258H177.507z"/>
<path fill="#FFFFFF" d="M212.059,608.76v-75.04h15.101c5.002,0,9.14,0.665,12.414,1.992c3.272,1.329,5.697,3.46,7.272,6.393
	c1.575,2.934,2.363,6.778,2.363,11.533c0,2.904-0.31,5.544-0.927,7.921c-0.618,2.379-1.606,4.387-2.964,6.022
	c-1.359,1.637-3.15,2.825-5.373,3.566l10.654,37.612H240.5l-9.82-35.204h-8.153v35.204H212.059z M222.527,566.052h3.984
	c2.964,0,5.373-0.37,7.226-1.111c1.853-0.741,3.21-2.006,4.076-3.799c0.864-1.79,1.297-4.291,1.297-7.504
	c0-4.384-0.803-7.55-2.409-9.495c-1.607-1.945-4.787-2.918-9.542-2.918h-4.632V566.052z"/>
<path fill="#FFFFFF" d="M377.694,609.594c-5.436,0-9.604-1.08-12.507-3.242c-2.903-2.162-4.879-5.203-5.929-9.126
	c-1.051-3.921-1.575-8.507-1.575-13.757V533.72h10.006v50.212c0,3.212,0.215,6.146,0.648,8.801c0.431,2.656,1.373,4.757,2.825,6.3
	c1.45,1.545,3.628,2.316,6.531,2.316c2.965,0,5.156-0.771,6.577-2.316c1.42-1.543,2.347-3.644,2.779-6.3
	c0.432-2.654,0.648-5.589,0.648-8.801V533.72h9.913v49.749c0,5.25-0.525,9.836-1.575,13.757c-1.051,3.923-3.011,6.964-5.883,9.126
	C387.282,608.514,383.127,609.594,377.694,609.594z"/>
<path fill="#FFFFFF" d="M421.279,608.76v-75.04h10.283v75.04H421.279z"/>
<path fill="#FFFFFF" d="M455.924,608.76v-75.04h16.306c5.559,0,9.959,0.851,13.201,2.548c3.242,1.699,5.559,4.247,6.948,7.644
	s2.084,7.628,2.084,12.691v27.607c0,5.313-0.694,9.789-2.084,13.433c-1.39,3.646-3.646,6.408-6.763,8.292
	c-3.12,1.885-7.305,2.825-12.554,2.825H455.924z M466.393,601.256h5.93c3.828,0,6.545-0.741,8.152-2.224
	c1.605-1.482,2.578-3.644,2.918-6.484c0.339-2.841,0.51-6.269,0.51-10.283v-24.365c0-3.891-0.248-7.041-0.741-9.449
	c-0.495-2.409-1.575-4.169-3.243-5.28c-1.667-1.112-4.293-1.668-7.874-1.668h-5.651V601.256z"/>
<path fill="#FFFFFF" d="M524.013,609.594c-5.065,0-9.111-0.987-12.137-2.965c-3.026-1.976-5.188-4.802-6.484-8.477
	c-1.297-3.674-1.945-7.981-1.945-12.924v-28.44c0-4.94,0.662-9.187,1.991-12.738c1.327-3.551,3.488-6.268,6.485-8.152
	c2.994-1.884,7.024-2.826,12.09-2.826c5.063,0,9.078,0.959,12.043,2.872c2.965,1.915,5.109,4.632,6.438,8.152
	c1.327,3.521,1.992,7.752,1.992,12.692v28.533c0,4.88-0.665,9.142-1.992,12.785c-1.329,3.645-3.474,6.47-6.438,8.477
	C533.091,608.591,529.075,609.594,524.013,609.594z M524.013,601.349c2.778,0,4.878-0.57,6.299-1.714
	c1.42-1.143,2.377-2.748,2.872-4.817c0.494-2.068,0.741-4.493,0.741-7.272v-32.888c0-2.779-0.247-5.172-0.741-7.18
	c-0.495-2.007-1.452-3.551-2.872-4.632c-1.421-1.08-3.521-1.621-6.299-1.621c-2.779,0-4.896,0.541-6.347,1.621
	c-1.451,1.081-2.425,2.625-2.918,4.632c-0.495,2.008-0.741,4.4-0.741,7.18v32.888c0,2.779,0.246,5.204,0.741,7.272
	c0.493,2.069,1.467,3.675,2.918,4.817C519.116,600.778,521.234,601.349,524.013,601.349z"/>
<path fill="#FFFFFF" d="M553.47,608.76v-75.04h15.101c5.003,0,9.14,0.665,12.414,1.992c3.273,1.329,5.698,3.46,7.272,6.393
	c1.575,2.934,2.362,6.778,2.362,11.533c0,2.904-0.31,5.544-0.926,7.921c-0.618,2.379-1.607,4.387-2.965,6.022
	c-1.359,1.637-3.149,2.825-5.373,3.566l10.653,37.612h-10.098l-9.82-35.204h-8.152v35.204H553.47z M563.939,566.052h3.983
	c2.965,0,5.374-0.37,7.227-1.111s3.211-2.006,4.076-3.799c0.864-1.79,1.297-4.291,1.297-7.504c0-4.384-0.804-7.55-2.408-9.495
	c-1.607-1.945-4.787-2.918-9.543-2.918h-4.632V566.052z"/>
<path fill="#FFFFFF" d="M343.048,571.842c-1.853-1.636-4.293-2.793-7.318-3.474c2.47-0.371,4.493-1.204,6.068-2.501
	c1.574-1.298,2.747-3.072,3.521-5.327c0.771-2.254,1.157-4.925,1.157-8.014c0-3.211-0.402-6.006-1.204-8.384
	c-0.803-2.377-2.038-4.339-3.705-5.883c-1.668-1.543-3.752-2.687-6.254-3.428c-0.747-0.222-1.548-0.399-2.375-0.555
	c-1.324,2.531-2.684,5.044-4.075,7.537c0.735,0.081,1.423,0.177,2.05,0.29c2.224,0.402,3.859,1.375,4.91,2.918
	c1.05,1.545,1.575,4.046,1.575,7.504c0,2.965-0.341,5.373-1.02,7.226c-0.681,1.854-1.853,3.196-3.521,4.03
	c-1.667,0.834-3.983,1.251-6.948,1.251h-6.207v-23.531h2.502c1.063,0,2.061,0.02,3.005,0.056c1.519-2.551,3.007-5.114,4.445-7.702
	c-1.021-0.08-2.071-0.136-3.188-0.136h-17.231v75.04h20.011c3.335,0,6.221-0.51,8.661-1.528c2.439-1.02,4.447-2.455,6.022-4.308
	c1.574-1.854,2.732-4.107,3.474-6.764c0.741-2.654,1.111-5.589,1.111-8.801c0-3.581-0.448-6.654-1.343-9.218
	C346.275,575.58,344.902,573.479,343.048,571.842z M336.147,597.967c-1.575,2.193-4.71,3.289-9.403,3.289h-7.041V573h6.207
	c3.088,0,5.543,0.542,7.365,1.621c1.821,1.082,3.15,2.687,3.983,4.817c0.834,2.131,1.251,4.771,1.251,7.921
	C338.509,592.239,337.722,595.775,336.147,597.967z"/>
</svg>
